<svg width="375" height="550" viewBox="0 0 375 550" fill="none" xmlns="http://www.w3.org/2000/svg">
<path d="M-0.499817 403.5L-0.499841 355.5L159.704 448.934L159.704 469L-0.499817 403.5Z" fill="#EBE7BB"/>
<path d="M-12.7653 469.592L-27.3967 426L139.446 456.929L145.563 475.152L-12.7653 469.592Z" fill="#EBE7BB"/>
<path d="M-1.99996 313.5L-2.00002 264.5L160.5 433L155 452.939L-1.99996 313.5Z" fill="#EBE7BB"/>
<path d="M180.905 -72.7864L237 -72.7864L169.5 482.297L149 482.297L180.905 -72.7864Z" fill="#EBE7BB"/>
<path d="M-76.5922 63.565L-30.2546 31.9999L183.51 448.706L166.575 460.242L-76.5922 63.565Z" fill="#EBE7BB"/>
<path d="M60.5118 -1.71501L114.982 -15L168.82 450.232L148.914 455.087L60.5118 -1.71501Z" fill="#EBE7BB"/>
<path d="M293.938 -72.1719L353.5 -72.1719L175 467.702L161 467.702L293.938 -72.1719Z" fill="#EBE7BB"/>
<path d="M385.603 -29.3589L460.267 -22.7495L182.935 458.026L164.526 473.783L385.603 -29.3589Z" fill="#EBE7BB"/>
<path d="M385.859 179L382.613 248.424L196.127 443.869L195.881 426.487L385.859 179Z" fill="#EBE7BB"/>
<path d="M426 254.5L453.013 295.065L194.118 456.513L181.457 440.752L426 254.5Z" fill="#EBE7BB"/>
<path d="M375 370L375 408L165.5 481L183 460L375 370Z" fill="#EBE7BB"/>
<path d="M454.079 418.978L447.519 459.935L223.359 477.01L244.657 459.522L454.079 418.978Z" fill="#EBE7BB"/>
<path d="M456.659 504.669L440.333 549.957L217.528 488.752L242.542 476.104L456.659 504.669Z" fill="#EBE7BB"/>
<path d="M-9.11973 535.473L-34 496.804L135.332 485.849L145.733 502.014L-9.11973 535.473Z" fill="#EBE7BB"/>
</svg>
